<svg id="wall_of_fame" data-name="wall of fame" xmlns="http://www.w3.org/2000/svg" viewBox="0 0 120 36"><defs><style>.cls-1{fill:#fff;}</style></defs><title>wallOfFame</title><g id="backers_and_friends" data-name="backers and friends"><path id="s" class="cls-1" d="M114.1294,33.454l1.4183-.138a1.7294,1.7294,0,0,0,.52,1.0491,1.5713,1.5713,0,0,0,1.0565.3349,1.6238,1.6238,0,0,0,1.0612-.2979.8866.8866,0,0,0,.3572-.6971.6581.6581,0,0,0-.15-.4359,1.2066,1.2066,0,0,0-.5247-.3127q-.2562-.0884-1.1672-.315a3.957,3.957,0,0,1-1.6449-.7142,1.8788,1.8788,0,0,1-.665-1.453,1.8547,1.8547,0,0,1,.3129-1.0317,1.9578,1.9578,0,0,1,.9011-.7314,3.61,3.61,0,0,1,1.421-.2514,3.0476,3.0476,0,0,1,2.0464.5961,2.104,2.104,0,0,1,.7216,1.5907l-1.458.0643a1.2386,1.2386,0,0,0-.4012-.8,1.47,1.47,0,0,0-.9236-.2437,1.6652,1.6652,0,0,0-.9949.2609.5264.5264,0,0,0-.2316.4483.5544.5544,0,0,0,.2168.4382,3.8352,3.8352,0,0,0,1.34.4827,7.0558,7.0558,0,0,1,1.5738.52,2.0294,2.0294,0,0,1,.7977.7338,2.273,2.273,0,0,1-.0566,2.3123,2.0653,2.0653,0,0,1-.9751.8054,4.091,4.091,0,0,1-1.5711.2633,3.129,3.129,0,0,1-2.1033-.6328A2.7522,2.7522,0,0,1,114.1294,33.454Z"/><path id="d" class="cls-1" d="M107.21,28.583h2.6644a5.21,5.21,0,0,1,1.3742.138,2.4161,2.4161,0,0,1,1.0882.6647,3.1558,3.1558,0,0,1,.69,1.17,5.3309,5.3309,0,0,1,.2363,1.7064,4.7451,4.7451,0,0,1-.2215,1.5365,3.1821,3.1821,0,0,1-.7732,1.2757,2.5615,2.5615,0,0,1-1.0245.5762,4.41,4.41,0,0,1-1.2905.1528H107.21v-7.22Zm1.4577,1.2214v4.7825h1.0885a3.976,3.976,0,0,0,.8816-.069,1.3472,1.3472,0,0,0,.5886-.3006,1.5287,1.5287,0,0,0,.3817-.6967,4.7184,4.7184,0,0,0,.1477-1.3224,4.3207,4.3207,0,0,0-.1477-1.2855,1.6549,1.6549,0,0,0-.4137-.6994,1.3877,1.3877,0,0,0-.6748-.34,6.6177,6.6177,0,0,0-1.1969-.069Z"/><path id="n" class="cls-1" d="M99.9449,35.8033v-7.22h1.4184l2.9551,4.8218V28.583h1.3544v7.22H104.21l-2.9107-4.7084v4.7084Z"/><path id="e" class="cls-1" d="M93.2026,35.8033v-7.22h5.3536v1.2214H94.6606v1.6008h3.6247v1.2164H94.6606v1.9653h4.0336v1.2164Z"/><path id="i" class="cls-1" d="M90.3561,35.8033v-7.22h1.4577v7.22Z"/><path id="r" class="cls-1" d="M83.121,35.8033v-7.22h3.0682a5.2514,5.2514,0,0,1,1.6819.1945,1.66,1.66,0,0,1,.84.692,2.08,2.08,0,0,1,.3153,1.1377,1.9274,1.9274,0,0,1-.4779,1.3423,2.2945,2.2945,0,0,1-1.4281.6674,3.4107,3.4107,0,0,1,.7806.6056,8.2559,8.2559,0,0,1,.83,1.1722l.8815,1.4086H87.8688l-1.0539-1.5711a10.1969,10.1969,0,0,0-.7684-1.0613,1.1164,1.1164,0,0,0-.4385-.3005,2.4025,2.4025,0,0,0-.7337-.0811h-.2956v3.014Zm1.4577-4.1666h1.0787a5.56,5.56,0,0,0,1.31-.0888.7842.7842,0,0,0,.4089-.3053.9412.9412,0,0,0,.1478-.5419.865.865,0,0,0-.1946-.5883.8934.8934,0,0,0-.5492-.2834q-.1773-.0245-1.0639-.0246H84.5787Z"/><path id="f" class="cls-1" d="M76.9646,35.8033v-7.22h4.95v1.2214h-3.492v1.7092h3.0141V32.735H78.4223v3.0683Z"/><path id="d-2" data-name="d" class="cls-1" d="M66.8632,28.583h2.6644a5.21,5.21,0,0,1,1.3742.138,2.4166,2.4166,0,0,1,1.0882.6647,3.1558,3.1558,0,0,1,.69,1.17,5.3311,5.3311,0,0,1,.2362,1.7064,4.7424,4.7424,0,0,1-.2215,1.5365,3.1808,3.1808,0,0,1-.7731,1.2757,2.5622,2.5622,0,0,1-1.0245.5762,4.4105,4.4105,0,0,1-1.29.1528H66.8632Zm1.4577,1.2214v4.7825h1.0885a3.9743,3.9743,0,0,0,.8815-.069,1.3476,1.3476,0,0,0,.5887-.3006,1.5287,1.5287,0,0,0,.3817-.6967,4.7184,4.7184,0,0,0,.1477-1.3224,4.3207,4.3207,0,0,0-.1477-1.2855,1.6549,1.6549,0,0,0-.4137-.6994,1.3881,1.3881,0,0,0-.6748-.34,6.617,6.617,0,0,0-1.1969-.069Z"/><path id="n-2" data-name="n" class="cls-1" d="M59.5985,35.8033v-7.22h1.4184l2.9551,4.8218V28.583h1.3544v7.22H63.8636l-2.9107-4.7084v4.7084Z"/><path id="a" class="cls-1" d="M58.8105,35.8033H57.2246l-.63-1.64H53.708l-.5958,1.64H51.5657l2.8121-7.22h1.5416Zm-2.6842-2.8566-.9949-2.6792-.9751,2.6792Z"/><path id="s-2" data-name="s" class="cls-1" d="M42.7745,33.454l1.4184-.138a1.73,1.73,0,0,0,.52,1.0491A1.5715,1.5715,0,0,0,45.769,34.7a1.6241,1.6241,0,0,0,1.0613-.2979.8865.8865,0,0,0,.3571-.6971.658.658,0,0,0-.15-.4359,1.2072,1.2072,0,0,0-.5247-.3127q-.2562-.0884-1.1673-.315a3.9558,3.9558,0,0,1-1.6448-.7142,1.8789,1.8789,0,0,1-.6651-1.453,1.8541,1.8541,0,0,1,.313-1.0317,1.9575,1.9575,0,0,1,.901-.7314A3.6105,3.6105,0,0,1,45.67,28.46a3.0474,3.0474,0,0,1,2.0464.5961,2.1041,2.1041,0,0,1,.7217,1.5907l-1.4581.0643a1.2386,1.2386,0,0,0-.4012-.8,1.47,1.47,0,0,0-.9235-.2437,1.6656,1.6656,0,0,0-.995.2609.5263.5263,0,0,0-.2315.4483.5543.5543,0,0,0,.2167.4382,3.8361,3.8361,0,0,0,1.34.4827,7.0522,7.0522,0,0,1,1.5738.52,2.0294,2.0294,0,0,1,.7977.7338,2.2733,2.2733,0,0,1-.0565,2.3123,2.0658,2.0658,0,0,1-.9751.8054,4.0919,4.0919,0,0,1-1.5712.2633,3.1285,3.1285,0,0,1-2.1032-.6328A2.7523,2.7523,0,0,1,42.7745,33.454Z"/><path id="r-2" data-name="r" class="cls-1" d="M35.8646,35.8033v-7.22h3.0682a5.2514,5.2514,0,0,1,1.6819.1945,1.66,1.66,0,0,1,.84.692,2.08,2.08,0,0,1,.3153,1.1377,1.9274,1.9274,0,0,1-.4779,1.3423,2.2948,2.2948,0,0,1-1.4281.6674,3.41,3.41,0,0,1,.7805.6056,8.2463,8.2463,0,0,1,.83,1.1722l.8815,1.4086H40.6123l-1.0538-1.5711a10.1969,10.1969,0,0,0-.7684-1.0613,1.1171,1.1171,0,0,0-.4385-.3005,2.4028,2.4028,0,0,0-.7338-.0811h-.2955v3.014Zm1.4577-4.1666H38.401a5.5608,5.5608,0,0,0,1.31-.0888.7842.7842,0,0,0,.4089-.3053.9419.9419,0,0,0,.1477-.5419.865.865,0,0,0-.1945-.5883.8939.8939,0,0,0-.5493-.2834q-.1771-.0245-1.0639-.0246H37.3222v1.8323Z"/><path id="e-2" data-name="e" class="cls-1" d="M29.1319,35.8033v-7.22h5.3537v1.2214H30.59v1.6008h3.6246v1.2164H30.59v1.9653h4.0336v1.2164Z"/><path id="k" class="cls-1" d="M21.8675,35.8033v-7.22h1.4578v3.2062l2.9453-3.2062h1.96L25.512,31.3954l2.8663,4.4079H26.4921l-1.9848-3.3884-1.1821,1.2067v2.1817Z"/><path id="c" class="cls-1" d="M19.1833,33.1487l1.4134.448a3.1691,3.1691,0,0,1-1.0808,1.7559,3.0841,3.0841,0,0,1-1.9185.5739,3.106,3.106,0,0,1-2.3641-.9825,3.7613,3.7613,0,0,1-.9259-2.6869,3.946,3.946,0,0,1,.9309-2.8A3.1914,3.1914,0,0,1,17.686,28.46a3.0034,3.0034,0,0,1,2.1524.7832,2.8481,2.8481,0,0,1,.7387,1.33l-1.4429.3447a1.4913,1.4913,0,0,0-1.522-1.2114,1.6413,1.6413,0,0,0-1.3025.5762,2.8226,2.8226,0,0,0-.5,1.8664,3.0284,3.0284,0,0,0,.4927,1.95,1.5984,1.5984,0,0,0,1.28.5813,1.4609,1.4609,0,0,0,1-.37A2.1464,2.1464,0,0,0,19.1833,33.1487Z"/><path id="a-2" data-name="a" class="cls-1" d="M13.79,35.8033H12.2044l-.63-1.64H8.6878l-.5958,1.64H6.5455l2.8121-7.22h1.5416Zm-2.6842-2.8566-.9949-2.6792-.9751,2.6792Z"/><path id="b" class="cls-1" d="M0,28.583H2.8861a8.3651,8.3651,0,0,1,1.278.0714,1.8787,1.8787,0,0,1,.7536.2981,1.8551,1.8551,0,0,1,.5541.6032,1.6356,1.6356,0,0,1,.2215.8448,1.7117,1.7117,0,0,1-1.0145,1.5661,1.8993,1.8993,0,0,1,1.0145.655A1.7391,1.7391,0,0,1,6.048,33.71a2.1479,2.1479,0,0,1-.2289.9579,1.9312,1.9312,0,0,1-.6257.7438,2.065,2.065,0,0,1-.9774.3423q-.3647.04-1.7583.0492H0Zm1.4577,1.2019v1.6694h.9556q.8518,0,1.0588-.0245a.965.965,0,0,0,.5887-.2585.7634.7634,0,0,0,.2141-.5641.7925.7925,0,0,0-.1848-.5443.8359.8359,0,0,0-.549-.2535q-.2168-.0249-1.246-.0245Zm0,2.8713v1.9307h1.35a6.5786,6.5786,0,0,0,1-.0445.9025.9025,0,0,0,.5294-.2881.8874.8874,0,0,0,.2043-.6132.9417.9417,0,0,0-.1575-.5517.892.892,0,0,0-.4554-.33,4.9534,4.9534,0,0,0-1.2931-.1034Z"/></g><g id="commemorating"><path id="g" class="cls-1" d="M115.89,21.6207V20.0294H120v3.7623a5.1723,5.1723,0,0,1-1.7363,1.0213,6.3214,6.3214,0,0,1-2.3032.4411,5.1677,5.1677,0,0,1-2.5835-.6216,3.9519,3.9519,0,0,1-1.6557-1.7782,5.7441,5.7441,0,0,1-.5541-2.5157,5.4366,5.4366,0,0,1,.6185-2.6223,4.1659,4.1659,0,0,1,1.81-1.7587,4.8857,4.8857,0,0,1,2.2614-.47,4.5118,4.5118,0,0,1,2.7478.7377,3.3319,3.3319,0,0,1,1.2724,2.0391l-1.8941.3544a2,2,0,0,0-.7506-1.0986,2.27,2.27,0,0,0-1.3755-.4026,2.5838,2.5838,0,0,0-1.9875.7924,3.338,3.338,0,0,0-.7377,2.3516,3.697,3.697,0,0,0,.7474,2.5223,2.4954,2.4954,0,0,0,1.9584.8408,3.2819,3.2819,0,0,0,1.2016-.2352,4.1168,4.1168,0,0,0,1.034-.57V21.6206H115.89Z"/><path id="n-3" data-name="n" class="cls-1" d="M101.9864,25.0932V15.6484h1.8554l3.8656,6.3072V15.6484h1.7717v9.4448h-1.9135l-3.8075-6.1591v6.1591Z"/><path id="i-2" data-name="i" class="cls-1" d="M98.2434,25.0932V15.6484h1.907v9.4448Z"/><path id="t" class="cls-1" d="M92.3676,25.0932V17.2461H89.565V15.6484h7.5057v1.5977H94.2746v7.8471Z"/><path id="a-3" data-name="a" class="cls-1" d="M90.2094,25.0932H88.1348L87.31,22.9478H83.5349l-.78,2.1454h-2.023l3.6787-9.4448h2.0165Zm-3.5112-3.7367-1.3014-3.5048-1.2757,3.5048Z"/><path id="r-3" data-name="r" class="cls-1" d="M72.17,25.0932V15.6484h4.0137a6.87,6.87,0,0,1,2.2.2544,2.172,2.172,0,0,1,1.0984.9052,2.721,2.721,0,0,1,.4123,1.4883,2.5211,2.5211,0,0,1-.625,1.7555,3,3,0,0,1-1.8682.873,4.4547,4.4547,0,0,1,1.0211.7925,10.771,10.771,0,0,1,1.0856,1.5332l1.1532,1.8427H78.3808l-1.3787-2.0553A13.3808,13.3808,0,0,0,75.997,21.65a1.4639,1.4639,0,0,0-.5735-.3929,3.1452,3.1452,0,0,0-.96-.1063h-.3865v3.9429Zm1.907-5.45h1.411a7.2756,7.2756,0,0,0,1.7138-.116,1.027,1.027,0,0,0,.5347-.3994,1.2308,1.2308,0,0,0,.1933-.7086,1.1326,1.1326,0,0,0-.2545-.77,1.1685,1.1685,0,0,0-.7184-.3706q-.2319-.0321-1.3916-.0321H74.0771v2.3966Z"/><path id="o" class="cls-1" d="M61.5141,20.4288a6.0061,6.0061,0,0,1,.4317-2.4224,4.4389,4.4389,0,0,1,.8793-1.295,3.6768,3.6768,0,0,1,1.2209-.85,5.1853,5.1853,0,0,1,2.0359-.3737,4.4341,4.4341,0,0,1,3.34,1.2949,4.9638,4.9638,0,0,1,1.2532,3.6014,4.9477,4.9477,0,0,1-1.2435,3.579,4.9663,4.9663,0,0,1-6.6745.0064A4.8774,4.8774,0,0,1,61.5141,20.4288Zm1.9649-.0646a3.5393,3.5393,0,0,0,.7409,2.4323,2.5473,2.5473,0,0,0,3.7529.0064,3.61,3.61,0,0,0,.7312-2.4643,3.5521,3.5521,0,0,0-.7119-2.4225,2.6377,2.6377,0,0,0-3.7915.01A3.5688,3.5688,0,0,0,63.479,20.3642Z"/><path id="m" class="cls-1" d="M50.8837,25.0932V15.6484h2.854l1.7138,6.4425,1.6944-6.4425h2.8606v9.4448H58.2347V17.6584L56.36,25.0932H54.5238l-1.8683-7.4348v7.4348Z"/><path id="e-3" data-name="e" class="cls-1" d="M42.109,25.0932V15.6484h7.003v1.5977H44.016V19.34h4.7418v1.5913H44.016v2.5707h5.2766v1.5913Z"/><path id="m-2" data-name="m" class="cls-1" d="M31.092,25.0932V15.6484h2.8541L35.66,22.0909l1.6944-6.4425h2.8607v9.4448H38.4431V17.6584l-1.8748,7.4348H34.7322l-1.8683-7.4348v7.4348Z"/><path id="m-3" data-name="m" class="cls-1" d="M20.1009,25.0932V15.6484h2.854l1.7138,6.4425,1.6944-6.4425h2.8606v9.4448H27.452V17.6584l-1.8748,7.4348H23.741l-1.8683-7.4348v7.4348Z"/><path id="o-2" data-name="o" class="cls-1" d="M9.4771,20.4288a6.0061,6.0061,0,0,1,.4316-2.4224,4.4428,4.4428,0,0,1,.8793-1.295,3.6782,3.6782,0,0,1,1.221-.85,5.1853,5.1853,0,0,1,2.0359-.3737,4.4341,4.4341,0,0,1,3.34,1.2949,4.9638,4.9638,0,0,1,1.2532,3.6014,4.9474,4.9474,0,0,1-1.2436,3.579,4.4,4.4,0,0,1-3.3244,1.2916,4.445,4.445,0,0,1-3.35-1.2852A4.8774,4.8774,0,0,1,9.4771,20.4288Zm1.9649-.0646a3.5393,3.5393,0,0,0,.7409,2.4323,2.5472,2.5472,0,0,0,3.7528.0064,3.61,3.61,0,0,0,.7312-2.4643,3.5521,3.5521,0,0,0-.7118-2.4225,2.41,2.41,0,0,0-1.8909-.7989,2.4258,2.4258,0,0,0-1.9007.8085A3.5693,3.5693,0,0,0,11.442,20.3642Z"/><path id="c-2" data-name="c" class="cls-1" d="M6.3781,21.6207l1.8491.5862A4.1479,4.1479,0,0,1,6.813,24.5037a4.0338,4.0338,0,0,1-2.5093.75A4.0624,4.0624,0,0,1,1.2112,23.969,4.9176,4.9176,0,0,1,0,20.4546a5.163,5.163,0,0,1,1.2177-3.6627A4.1749,4.1749,0,0,1,4.42,15.4872a3.9282,3.9282,0,0,1,2.8154,1.0245,3.7269,3.7269,0,0,1,.9664,1.7394l-1.8877.451a1.9515,1.9515,0,0,0-1.9907-1.5849,2.1489,2.1489,0,0,0-1.7041.7539,3.6946,3.6946,0,0,0-.6539,2.4417,3.96,3.96,0,0,0,.6443,2.5513,2.0917,2.0917,0,0,0,1.675.76,1.91,1.91,0,0,0,1.3079-.4833A2.8071,2.8071,0,0,0,6.3781,21.6207Z"/></g><g id="wall_of_fame-2" data-name="wall of fame"><path id="e-4" data-name="e" class="cls-1" d="M109.7607,0h10.0571V2.593h-6.2961v1.93h5.84V7h-5.84V9.3946H120v2.75H109.7607Z"/><path id="m-4" data-name="m" class="cls-1" d="M93.7141,0h4.9352l1.9034,7.39,1.89-7.39h4.9325V12.1449h-3.0735V2.883l-2.3681,9.2619h-2.782L96.7875,2.883v9.2619H93.7141V0Z"/><path id="a-4" data-name="a" class="cls-1" d="M88.0251,10.14h-4.26l-.592,2.0048H79.3408L83.9055,0H87.999l4.5636,12.1449h-3.93Zm-.7785-2.6262-1.34-4.3658L84.58,7.5139Z"/><path id="f-2" data-name="f" class="cls-1" d="M70.8577,0h9.2784V2.61h-5.509v2.121h4.7053V7.1826H74.6271v4.9623H70.8577Z"/><path id="f-3" data-name="f" class="cls-1" d="M62.9616,4.13h6.1231V5.8524H65.4491V7.2519h3.1053V8.87H65.4491v3.2747H62.9616V4.13Z"/><path id="o-3" data-name="o" class="cls-1" d="M53.3125,8.143a4.1311,4.1311,0,0,1,1.0934-3.056A4.1161,4.1161,0,0,1,57.451,3.9936a4.1892,4.1892,0,0,1,3.0833,1.0743,4.0505,4.0505,0,0,1,1.0825,3.01,4.9349,4.9349,0,0,1-.4729,2.3044,3.3725,3.3725,0,0,1-1.3667,1.4,4.5139,4.5139,0,0,1-2.2278.5,5.1273,5.1273,0,0,1-2.2443-.4318,3.3784,3.3784,0,0,1-1.44-1.3668A4.5369,4.5369,0,0,1,53.3125,8.143Zm2.4766.011A2.6871,2.6871,0,0,0,56.24,9.898a1.7072,1.7072,0,0,0,2.463.0109A2.9656,2.9656,0,0,0,59.14,8.0447a2.4769,2.4769,0,0,0-.4566-1.6537,1.5607,1.5607,0,0,0-1.2382-.5222,1.5049,1.5049,0,0,0-1.2028.53A2.6956,2.6956,0,0,0,55.7891,8.154Z"/><path id="l" class="cls-1" d="M42.73,0H46.483V9.1543H52.34v2.9906H42.73V0Z"/><path id="l-2" data-name="l" class="cls-1" d="M31.414,0h3.7527V9.1543h5.8569v2.9906h-9.61Z"/><path id="a-5" data-name="a" class="cls-1" d="M25.6836,10.14H21.423l-.5919,2.0048H16.9994L21.564,0h4.0935l4.5636,12.1449h-3.93Zm-.7785-2.6262L23.5646,3.1481,22.2381,7.5139Z"/><path id="w" class="cls-1" d="M0,0H3.5645L4.8478,6.799,6.7259,0h3.5516L12.16,6.79,13.4452,0h3.5459L14.314,12.1449h-3.68l-2.13-7.6464L6.3819,12.1449h-3.68Z"/></g></svg>